C:\Users\u0150099\Documents\PredSim_dev\Subjects\test_1\MuscleAnalysis\dummy_motion.mot
version=1
nRows=13
nColumns=32
inDegrees=no
endheader
                time	         pelvis_tilt	         pelvis_list	     pelvis_rotation	           pelvis_tx	           pelvis_ty	           pelvis_tz	       hip_flexion_l	     hip_adduction_l	      hip_rotation_l	       hip_flexion_r	     hip_adduction_r	      hip_rotation_r	        knee_angle_l	        knee_angle_r	       ankle_angle_l	       ankle_angle_r	    subtalar_angle_l	    subtalar_angle_r	         mtp_angle_l	         mtp_angle_r	    lumbar_extension	      lumbar_bending	     lumbar_rotation	          arm_flex_l	           arm_add_l	           arm_rot_l	          arm_flex_r	           arm_add_r	           arm_rot_r	        elbow_flex_l	        elbow_flex_r	
         25.01000000	          0.00000000	          0.00000000	          0.00000000	          0.00000000	          0.00000000	          0.00000000	          0.29496991	         -0.22284823	          0.09647663	         -0.11234102	          0.37579798	          0.38388163	         -0.05583526	         -1.20787488	         -0.51705379	         -0.16637711	          0.34875322	          0.02438023	         -0.12769759	          0.02194819	          0.32952600	          0.45374405	         -0.03693459	         -0.31803337	         -0.42412039	         -0.05842106	         -0.48282402	          0.37032608	         -0.46342340	         -0.33693321	         -0.50767612	
         25.02000000	          0.00000000	          0.00000000	          0.00000000	          0.00000000	          0.00000000	          0.00000000	          0.77704446	         -0.12050500	          0.25563484	         -0.18989242	         -0.09599537	          0.03149905	         -1.27061592	         -1.03429701	         -0.12476109	          0.07145027	          0.14550305	          0.17612182	         -0.33192322	          0.43057340	          0.32223173	         -0.11539527	          0.06809606	          0.17565715	         -0.23978587	          0.12184104	         -0.37589069	         -0.08934132	         -0.15386087	          0.24712169	          0.29834839	
         25.03000000	          0.00000000	          0.00000000	          0.00000000	          0.00000000	          0.00000000	          0.00000000	          0.72095702	          0.40220595	          0.00231138	         -0.35055927	         -0.23912856	          0.51593637	         -0.28171890	         -0.51273273	         -0.10509232	         -0.11842991	          0.37682622	         -0.42471807	          0.82424928	          0.08724115	         -0.26990872	          0.08422400	          0.49695846	          0.16154849	         -0.40619846	          0.44787345	          0.47537245	          0.20467793	         -0.09166008	         -0.42485086	         -0.14418127	
         25.04000000	          0.00000000	          0.00000000	          0.00000000	          0.00000000	          0.00000000	          0.00000000	         -0.04795609	         -0.44290034	          0.10794266	         -0.16660804	         -0.47383857	          0.01704726	         -0.59057647	         -0.70775250	          0.37308564	          0.39428044	          0.05536104	         -0.09819268	         -0.25549647	         -0.10423321	          0.48817447	         -0.45285000	          0.41753772	         -0.46650245	          0.35464902	          0.44247502	         -0.39430016	         -0.25405795	         -0.41372332	         -0.00924406	          0.42670479	
         25.05000000	          0.00000000	          0.00000000	          0.00000000	          0.00000000	          0.00000000	          0.00000000	         -0.59576465	         -0.28341869	         -0.13367766	          0.60180922	         -0.51885996	         -0.51811509	         -1.17137514	         -0.03249740	          0.04201869	          0.47001117	          0.46303474	          0.49917482	          0.34914707	          0.22023374	          0.43192242	          0.11228528	         -0.22999764	         -0.43279973	          0.40859811	          0.32950172	          0.14112646	          0.32583857	         -0.44298940	          0.51834021	          0.41394389	
         25.06000000	          0.00000000	          0.00000000	          0.00000000	          0.00000000	          0.00000000	          0.00000000	          0.05318210	         -0.20532598	          0.13463906	          0.70126996	          0.26651666	         -0.04221643	         -1.19552701	         -0.91152062	          0.00578766	          0.41940910	          0.42341850	          0.21676498	          0.06039925	          0.36761813	          0.44625128	         -0.17330411	          0.16122234	          0.19995149	         -0.00986533	          0.23458370	         -0.47788176	          0.48188643	          0.22239688	         -0.22016117	          0.10727183	
         25.07000000	          0.00000000	          0.00000000	          0.00000000	          0.00000000	          0.00000000	          0.00000000	          0.81830535	          0.23461321	          0.11966230	         -0.64247916	         -0.42183226	          0.25511028	         -1.48174939	         -0.08945319	         -0.27283634	          0.21154599	         -0.33458986	          0.11766512	          0.77718231	          0.25504828	         -0.19694652	          0.45059563	         -0.52127609	          0.43324014	         -0.47484544	         -0.47852102	          0.32167547	         -0.24593955	          0.03635802	         -0.30853833	          0.41888739	
         25.08000000	          0.00000000	          0.00000000	          0.00000000	          0.00000000	          0.00000000	          0.00000000	          0.71409401	          0.48993427	         -0.10079241	         -0.37202932	         -0.09619719	         -0.01958169	         -0.85162700	         -0.93140278	         -0.16967372	          0.30391996	         -0.02764071	          0.47185808	         -0.31159881	         -0.28926727	          0.44698331	          0.28197462	         -0.35066222	          0.45109637	          0.47467154	         -0.23454012	         -0.05622522	          0.33138193	         -0.06031842	          0.32436754	          0.50106133	
         25.09000000	          0.00000000	          0.00000000	          0.00000000	          0.00000000	          0.00000000	          0.00000000	          0.16402998	         -0.01722690	          0.30779572	          0.70473852	         -0.41573006	         -0.40657125	         -0.15554253	         -1.24030621	          0.07961793	          0.35571853	         -0.07138138	         -0.32228428	         -0.12103794	          0.17855895	          0.06101203	          0.33674069	         -0.45229073	          0.31122020	         -0.11701062	          0.46137236	         -0.27088412	          0.15871547	         -0.13505671	          0.26116430	         -0.17948643	
         25.10000000	          0.00000000	          0.00000000	          0.00000000	          0.00000000	          0.00000000	          0.00000000	          0.13407025	         -0.04989828	         -0.44350370	          0.40586800	          0.00816685	         -0.12829176	         -0.20561934	         -1.40417286	          0.02085055	         -0.15211645	         -0.27797168	         -0.06888533	          0.05312816	         -0.21438341	         -0.06571548	         -0.02968900	          0.28940211	         -0.13956681	          0.34851929	          0.00499450	         -0.15036684	          0.48945679	         -0.32173679	          0.25753657	          0.03951355	
         25.11000000	          0.00000000	          0.00000000	          0.00000000	          0.00000000	          0.00000000	          0.00000000	         -0.64875466	         -0.49369925	         -0.34892939	         -0.48473239	         -0.30093779	          0.27805228	         -1.07460032	         -0.30065538	         -0.01900940	          0.12406455	          0.24437442	          0.02675994	          0.41112634	         -0.26688241	          0.05216456	         -0.21604953	         -0.16532341	         -0.33653037	          0.50566512	         -0.50561097	          0.41839850	          0.17344940	          0.37656346	          0.37662053	          0.20786216	
         25.12000000	          0.00000000	          0.00000000	          0.00000000	          0.00000000	          0.00000000	          0.00000000	          0.39857676	         -0.38056715	         -0.00895595	          0.26547970	         -0.08227067	          0.37179680	         -0.64271972	         -0.86610064	         -0.36852888	          0.44729093	          0.32737074	          0.42624551	          0.21082427	         -0.23342074	          0.33498061	          0.28020827	          0.14081140	          0.16722911	          0.19549513	          0.47302899	          0.19194655	         -0.11226916	          0.39344280	         -0.36536043	          0.08329335	
         25.13000000	          0.00000000	          0.00000000	          0.00000000	          0.00000000	          0.00000000	          0.00000000	          0.71879736	          0.38544745	         -0.00380519	          0.11958406	         -0.14130464	          0.41016925	         -1.26686520	         -0.39107009	         -0.11411018	          0.28475942	          0.16679929	         -0.04237198	          0.38461344	         -0.24891890	          0.41995240	         -0.45671257	         -0.28184354	         -0.42213797	         -0.04847255	          0.18595913	          0.40148848	          0.19425719	          0.27677811	          0.05779992	         -0.01727125	
